<svg width="106" height="22" viewBox="0 0 106 22" fill="none" xmlns="http://www.w3.org/2000/svg">
<path d="M6.52 2.8C7.6 2.8 8.52 2.97333 9.28 3.32C10.04 3.66667 10.62 4.16667 11.02 4.82C11.42 5.47333 11.62 6.26667 11.62 7.2C11.62 8.13333 11.42 8.92667 11.02 9.58C10.62 10.2333 10.04 10.7333 9.28 11.08C8.52 11.4267 7.6 11.6 6.52 11.6H3.9V16H0.46V2.8H6.52ZM5.98 9.02C6.7 9.02 7.24 8.87333 7.6 8.58C7.97333 8.27333 8.16 7.81333 8.16 7.2C8.16 6.58667 7.97333 6.13333 7.6 5.84C7.24 5.53333 6.7 5.38 5.98 5.38H3.9V9.02H5.98ZM13.5794 16V1.76H16.9794V7.82C17.2727 7.15333 17.6927 6.65333 18.2394 6.32C18.786 5.97333 19.4194 5.8 20.1394 5.8C20.8327 5.8 21.4327 5.93333 21.9394 6.2C22.4594 6.46667 22.866 6.86 23.1594 7.38C23.4527 7.9 23.5994 8.55333 23.5994 9.34V16H20.1994V10.28C20.1994 9.56 20.066 9.06667 19.7994 8.8C19.546 8.52 19.206 8.38 18.7794 8.38C18.4594 8.38 18.1594 8.46 17.8794 8.62C17.5994 8.78 17.3794 9.03333 17.2194 9.38C17.0594 9.72667 16.9794 10.18 16.9794 10.74V16H13.5794ZM30.7417 5.8C31.7951 5.8 32.7151 6.00667 33.5017 6.42C34.3017 6.82 34.9217 7.41333 35.3617 8.2C35.8151 8.97333 36.0417 9.90667 36.0417 11C36.0417 12.0933 35.8151 13.0333 35.3617 13.82C34.9217 14.5933 34.3017 15.1867 33.5017 15.6C32.7151 16 31.7951 16.2 30.7417 16.2C29.7151 16.2 28.8017 16 28.0017 15.6C27.2017 15.1867 26.5751 14.5933 26.1217 13.82C25.6817 13.0333 25.4617 12.0933 25.4617 11C25.4617 9.90667 25.6817 8.97333 26.1217 8.2C26.5751 7.41333 27.2017 6.82 28.0017 6.42C28.8017 6.00667 29.7151 5.8 30.7417 5.8ZM30.7417 8.22C30.3551 8.22 30.0217 8.31333 29.7417 8.5C29.4617 8.68667 29.2484 8.98667 29.1017 9.4C28.9551 9.81333 28.8817 10.3467 28.8817 11C28.8817 11.6533 28.9551 12.1867 29.1017 12.6C29.2484 13 29.4617 13.3 29.7417 13.5C30.0217 13.6867 30.3551 13.78 30.7417 13.78C31.1417 13.78 31.4817 13.6867 31.7617 13.5C32.0417 13.3 32.2551 13 32.4017 12.6C32.5484 12.1867 32.6217 11.6533 32.6217 11C32.6217 10.3467 32.5484 9.81333 32.4017 9.4C32.2551 8.98667 32.0417 8.68667 31.7617 8.5C31.4817 8.31333 31.1417 8.22 30.7417 8.22ZM42.0758 2.82V12.44C42.0758 12.92 42.1891 13.2667 42.4158 13.48C42.6558 13.68 42.9824 13.78 43.3958 13.78C43.7158 13.78 43.9891 13.7467 44.2158 13.68C44.4558 13.6 44.6691 13.4867 44.8558 13.34L45.2158 15.44C44.8824 15.68 44.4624 15.8667 43.9558 16C43.4491 16.1333 42.9291 16.2 42.3958 16.2C41.6358 16.2 40.9758 16.0933 40.4158 15.88C39.8691 15.6667 39.4424 15.3267 39.1358 14.86C38.8424 14.3933 38.6891 13.7733 38.6758 13V3.76L42.0758 2.82ZM45.0558 6V8.42H36.9558V6H45.0558ZM51.3863 5.8C52.4396 5.8 53.3596 6.00667 54.1463 6.42C54.9463 6.82 55.5663 7.41333 56.0063 8.2C56.4596 8.97333 56.6863 9.90667 56.6863 11C56.6863 12.0933 56.4596 13.0333 56.0063 13.82C55.5663 14.5933 54.9463 15.1867 54.1463 15.6C53.3596 16 52.4396 16.2 51.3863 16.2C50.3596 16.2 49.4463 16 48.6463 15.6C47.8463 15.1867 47.2196 14.5933 46.7663 13.82C46.3263 13.0333 46.1063 12.0933 46.1063 11C46.1063 9.90667 46.3263 8.97333 46.7663 8.2C47.2196 7.41333 47.8463 6.82 48.6463 6.42C49.4463 6.00667 50.3596 5.8 51.3863 5.8ZM51.3863 8.22C50.9996 8.22 50.6663 8.31333 50.3863 8.5C50.1063 8.68667 49.8929 8.98667 49.7463 9.4C49.5996 9.81333 49.5263 10.3467 49.5263 11C49.5263 11.6533 49.5996 12.1867 49.7463 12.6C49.8929 13 50.1063 13.3 50.3863 13.5C50.6663 13.6867 50.9996 13.78 51.3863 13.78C51.7863 13.78 52.1263 13.6867 52.4063 13.5C52.6863 13.3 52.8996 13 53.0463 12.6C53.1929 12.1867 53.2663 11.6533 53.2663 11C53.2663 10.3467 53.1929 9.81333 53.0463 9.4C52.8996 8.98667 52.6863 8.68667 52.4063 8.5C52.1263 8.31333 51.7863 8.22 51.3863 8.22Z" fill="#343434"/>
<path d="M69.7989 16H67.9789L60.6589 4.86V16H58.8389V1.9H60.6589L67.9789 13.06V1.9H69.7989V16ZM72.4056 1.8C72.4056 1.46667 72.519 1.2 72.7456 0.999999C72.9723 0.786666 73.2723 0.679999 73.6456 0.679999C74.019 0.679999 74.319 0.786666 74.5456 0.999999C74.7723 1.2 74.8856 1.46667 74.8856 1.8C74.8856 2.13333 74.7723 2.40667 74.5456 2.62C74.319 2.82 74.019 2.92 73.6456 2.92C73.2723 2.92 72.9723 2.82 72.7456 2.62C72.519 2.40667 72.4056 2.13333 72.4056 1.8ZM74.5456 5.02V16H72.7256V5.02H74.5456ZM83.2517 4.84C84.5317 4.84 85.5651 5.25333 86.3517 6.08C87.1384 6.89333 87.5317 8.07333 87.5317 9.62V16H85.7117V9.78C85.7117 8.68667 85.4317 7.84667 84.8717 7.26C84.3117 6.67333 83.5517 6.38 82.5917 6.38C81.5917 6.38 80.7917 6.70667 80.1917 7.36C79.5917 8 79.2917 8.94 79.2917 10.18V16H77.4717V5.02H79.2917V7.62C79.5717 6.72667 80.0651 6.04 80.7717 5.56C81.4917 5.08 82.3184 4.84 83.2517 4.84ZM91.3633 2.92C90.9899 2.92 90.6833 2.82 90.4433 2.62C90.2166 2.40667 90.1033 2.13333 90.1033 1.8C90.1033 1.46667 90.2166 1.2 90.4433 0.999999C90.6833 0.786666 90.9899 0.679999 91.3633 0.679999C91.7233 0.679999 92.0166 0.786666 92.2433 0.999999C92.4699 1.2 92.5833 1.46667 92.5833 1.8C92.5833 2.13333 92.4699 2.40667 92.2433 2.62C92.0166 2.82 91.7233 2.92 91.3633 2.92ZM88.3033 19.6H89.0633C89.5433 19.6 89.8899 19.4933 90.1033 19.28C90.3299 19.0667 90.4433 18.7 90.4433 18.18V5.02H92.2833V18.24C92.2833 20.2133 91.2833 21.2 89.2833 21.2H88.3033V19.6ZM99.6866 4.88C100.753 4.88 101.653 5.14667 102.387 5.68C103.133 6.21333 103.653 6.92667 103.947 7.82V5.02H105.767V16H103.947V13.2C103.653 14.0933 103.133 14.8067 102.387 15.34C101.653 15.8733 100.753 16.14 99.6866 16.14C98.7132 16.14 97.8466 15.9133 97.0866 15.46C96.3266 15.0067 95.7266 14.36 95.2866 13.52C94.8599 12.6667 94.6466 11.6667 94.6466 10.52C94.6466 9.37333 94.8599 8.37333 95.2866 7.52C95.7266 6.66667 96.3266 6.01333 97.0866 5.56C97.8466 5.10667 98.7132 4.88 99.6866 4.88ZM100.207 6.5C99.0866 6.5 98.1866 6.86 97.5066 7.58C96.8399 8.28667 96.5066 9.26667 96.5066 10.52C96.5066 11.7733 96.8399 12.76 97.5066 13.48C98.1866 14.1867 99.0866 14.54 100.207 14.54C100.927 14.54 101.567 14.3733 102.127 14.04C102.7 13.7067 103.147 13.24 103.467 12.64C103.787 12.0267 103.947 11.32 103.947 10.52C103.947 9.72 103.787 9.01333 103.467 8.4C103.147 7.78667 102.7 7.32 102.127 7C101.567 6.66667 100.927 6.5 100.207 6.5Z" fill="#4B4B4B"/>
</svg>
